<svg width="1920" height="1080" viewBox="0 0 1920 1080" xmlns="http://www.w3.org/2000/svg"><rect width="1920" height="1080" fill="#2c4b59"/><path d="M 0,1080 C 0,1080 0,180 0,180 C 146.7128205128205,188.36410256410255 293.425641025641,196.72820512820513 375,202 C 456.574358974359,207.27179487179487 473.0102564102565,209.45128205128202 603,194 C 732.9897435897435,178.54871794871798 976.5333333333333,145.46666666666664 1077,148 C 1177.4666666666667,150.53333333333336 1134.8564102564105,188.6820512820513 1193,213 C 1251.1435897435895,237.3179487179487 1410.0410256410255,247.8051282051282 1548,240 C 1685.9589743589745,232.1948717948718 1802.9794871794873,206.0974358974359 1920,180 C 1920,180 1920,1080 1920,1080 Z" fill="#56f58e" opacity="0.09999999999999999"/><path d="M 0,1080 C 0,1080 0,360 0,360 C 14.100000000000051,358.9076923076923 28.200000000000102,357.8153846153846 170,372 C 311.7999999999999,386.1846153846154 581.2999999999998,415.6461538461539 757,424 C 932.7000000000002,432.3538461538461 1014.6000000000001,419.6 1035,417 C 1055.3999999999999,414.4 1014.3,421.9538461538462 1113,427 C 1211.7,432.0461538461538 1450.1999999999998,434.58461538461535 1608,423 C 1765.8000000000002,411.41538461538465 1842.9,385.70769230769235 1920,360 C 1920,360 1920,1080 1920,1080 Z" fill="#56f58e" opacity="0.19999999999999998"/><path d="M 0,1080 C 0,1080 0,540 0,540 C 139.74102564102563,505.05128205128204 279.48205128205126,470.1025641025641 377,485 C 474.51794871794874,499.8974358974359 529.8128205128205,564.6410256410256 658,581 C 786.1871794871795,597.3589743589744 987.2666666666667,565.3333333333334 1063,540 C 1138.7333333333333,514.6666666666666 1089.1205128205127,496.025641025641 1156,508 C 1222.8794871794873,519.974358974359 1406.251282051282,562.5641025641025 1553,573 C 1699.748717948718,583.4358974358975 1809.874358974359,561.7179487179487 1920,540 C 1920,540 1920,1080 1920,1080 Z" fill="#56f58e" opacity="0.3"/><path d="M 0,1080 C 0,1080 0,720 0,720 C 50.51794871794871,707.4076923076923 101.03589743589743,694.8153846153846 220,695 C 338.9641025641026,695.1846153846154 526.3743589743589,708.1461538461539 689,714 C 851.6256410256411,719.8538461538461 989.4666666666667,718.5999999999999 1047,728 C 1104.5333333333333,737.4000000000001 1081.7589743589742,757.4538461538463 1153,761 C 1224.2410256410258,764.5461538461537 1389.497435897436,751.5846153846153 1533,742 C 1676.502564102564,732.4153846153847 1798.251282051282,726.2076923076924 1920,720 C 1920,720 1920,1080 1920,1080 Z" fill="#56f58e" opacity="0.39999999999999997"/><path d="M 0,1080 C 0,1080 0,900 0,900 C 107.57948717948719,905.9102564102564 215.15897435897438,911.8205128205128 361,908 C 506.8410256410256,904.1794871794872 690.9435897435898,890.6282051282051 761,890 C 831.0564102564102,889.3717948717949 787.0666666666666,901.6666666666666 896,923 C 1004.9333333333334,944.3333333333334 1266.7897435897437,974.7051282051283 1377,958 C 1487.2102564102563,941.2948717948717 1445.7743589743588,877.5128205128206 1511,860 C 1576.2256410256412,842.4871794871794 1748.1128205128207,871.2435897435897 1920,900 C 1920,900 1920,1080 1920,1080 Z" fill="#56f58e" opacity="0.49999999999999994"/></svg>